<?xml version="1.0" encoding="utf-8"?>
<!-- Generator: Adobe Illustrator 17.0.0, SVG Export Plug-In . SVG Version: 6.00 Build 0)  -->
<!DOCTYPE svg PUBLIC "-//W3C//DTD SVG 1.1//EN" "http://www.w3.org/Graphics/SVG/1.1/DTD/svg11.dtd">
<svg version="1.1" id="Capa_1" xmlns="http://www.w3.org/2000/svg" xmlns:xlink="http://www.w3.org/1999/xlink" x="0px" y="0px"
	 width="1000px" height="400px" viewBox="0 0 1000 400" enable-background="new 0 0 1000 400" xml:space="preserve">
<g>
	<g>
		<text transform="matrix(1 0 0 1 470.2153 148.5549)" font-family="'ArialMT'" font-size="42.6194">Apache</text>
	</g>
	<g>
		<path fill="#009E01" d="M324.175,315.458c-10.788-0.146-21.279-2.118-31.62-5.085c-4.974-1.43-8.964-4.322-12.453-8.021
			c0.139-1.838-1.047-3.074-1.945-4.48c-2.968-4.672-5.417-9.589-7.253-14.833c-7.16-20.473-5.862-41.39-3.442-62.379
			c0.727-6.3,3.424-12.2,3.695-18.586c0.533,0.223,1.067,0.445,1.6,0.665c-0.254,15.625,4.331,29.423,15.403,40.77
			c7.869,8.064,16.616,14.726,27.512,18.32c2.863,0.941,4.42,0.521,6.309-1.776c4.65-5.658,8.868-11.695,14.205-16.772
			c8.225,7.575,16.45,15.144,24.677,22.718c15.109,13.908,30.222,27.809,45.315,41.73c2.33,2.146,4.554,4.408,6.829,6.612
			c-1.479,2.086-3.683,1.176-5.545,1.179C379.7,315.55,351.94,315.493,324.175,315.458z"/>
		<path fill="#911600" d="M209.778,149.054c-18.839-17.517-37.654-35.056-56.526-52.537c-6.73-6.234-13.726-12.181-20.109-18.784
			c1.013-2.197,3.025-1.756,4.819-1.77c7.219-0.05,14.438-0.068,21.659-0.074c16.62-0.015,33.246,0.137,49.864-0.16
			c3.112-0.053,6.114,2.327,9.23,0.313c0.505-0.05,1.012-0.097,1.516-0.146c0.736,0.758,1.671,1.002,2.686,1.121
			c9.983,1.198,19.944,2.523,29.725,4.943c7.943,2.464,14.192,7.646,20.461,12.796c15.365,12.615,30.729,25.238,46.104,37.843
			c0.375,0.304,0.883,0.446,1.331,0.665c2.312,4.037,6.448,6.11,9.841,8.948c9.462,7.909,9.537,7.82,3.745,18.836
			c-0.072,0.134-0.247,0.22-0.374,0.329c-1.077,0.338-1.315,1.17-1.269,2.166l0.08-0.108c-1.628,0.545-2.343,1.603-1.864,3.328
			l0.074-0.013c-3.293-0.941-2.474-3.717-2.282-5.847c0.829-9.166-3.346-15.964-10.287-21.093
			c-13.582-10.036-26.701-20.576-38.505-32.689c-1.499-1.535-3.058-2.913-5.714-2.173c5.407,14.65,7.668,29.602,6.906,44.894
			c-0.663,13.344-2.626,26.559-5.826,39.563c-0.489-0.027-0.982-0.053-1.473-0.081c0.301-6.585-0.49-13.045-2.53-19.307
			c-6.513-19.982-21.179-31.865-39.665-40.074c-3.337-1.483-4.987-0.551-7.111,1.977
			C219.463,137.642,215.225,143.863,209.778,149.054z M253.42,134.799c-0.143-0.804-0.133-1.325-0.326-1.756
			c-7.365-16.638-16.947-31.923-28.234-46.159c-0.739-0.932-1.79-2.16-2.861-1.749c-3.576,1.365-6.941-0.186-10.382-0.386
			c-10.067-0.591-20.037,1.093-30.081,1.136c-2.112,0.01-4.355,0.626-6.302,1.493c-4.411,1.962-6.556,4.746-3.74,9.438
			c1.563,2.6,3.021,5.167,5.269,7.265c5.996,5.599,11.683,11.494,17.796,17c7.897,7.108,16.405,9.615,26.742,7.38
			c9.197-1.99,18.103-1.242,26.139,4.476C248.964,134.023,250.703,135.358,253.42,134.799z"/>
		<path fill="#01F0FC" d="M333.746,161.374c0.127-0.108,0.301-0.194,0.374-0.329c5.792-11.016,5.717-10.927-3.745-18.836
			c-3.393-2.836-7.528-4.909-9.841-8.948c6.531-5.983,12.243-12.745,18.284-19.194c17.314-18.495,34.526-37.084,51.799-55.62
			c0.612-0.656,0.914-1.869,2.234-1.539c-0.093,3.346-0.258,6.69-0.264,10.036c-0.031,22.616-0.105,45.234,0.04,67.847
			c0.019,3.148-0.94,5.305-3.133,7.426c-7.095,6.863-14.828,12.909-22.866,18.604c-1.465,1.038-3.339,1.643-4.12,3.498l0.127,0.034
			c-0.963-0.213-1.677,0.062-2.049,1.027l0.037-0.019c-0.903-0.078-1.604,0.245-2.071,1.034l0.059-0.038
			c-0.583,0.124-1.046,0.368-1.053,1.061l0.04-0.041c-0.922-0.133-1.665,0.096-2.056,1.028l0.047-0.025
			c-0.886-0.04-1.615,0.227-2.071,1.041l0.053-0.038c-0.589,0.114-1.077,0.335-1.053,1.058l0.041-0.041
			c-0.947-0.179-1.72-0.006-2.055,1.03l0.043-0.022c-0.908-0.093-1.696,0.049-2.062,1.033l0.046-0.031
			c-0.895-0.062-1.671,0.112-2.067,1.044l0.058-0.034c-0.885-0.027-1.656,0.164-2.08,1.044l0.068-0.04
			c-0.934-0.009-1.733,0.278-2.321,1.041c-0.276-0.043-0.527,0.012-0.759,0.167c-0.437,0.285-0.867,0.573-1.3,0.86
			c-4.771,0.92-8.701,3.963-13.291,5.34c-3.882,1.166-7.32,3.851-11.669,3.43c6.108-5.405,11.88-11.092,15.598-18.513l-0.074,0.013
			c1.052-0.87,1.709-1.96,1.864-3.328l-0.08,0.108C333.409,163.115,333.51,162.205,333.746,161.374z"/>
		<path fill="#35ABFD" d="M225.84,258.556c-5.41,4.47-9.577,10.123-14.427,15.134c-9.305,9.614-18.57,19.295-27.589,29.153
			c-9.015,9.856-18.161,19.606-27.076,29.565c-0.762,0.849-1.368,1.925-2.604,2.237c-0.037-24.952,0.062-49.9-0.217-74.849
			c-0.058-5.216,0.798-9.516,5.107-12.716c19.795-17.218,41.517-31.181,66.596-39.499c2.043-0.678,3.882-2.036,6.19-1.808
			c-0.595,0.575-1.155,1.191-1.789,1.714c-10.292,8.5-17.118,19.356-21.876,31.698c-0.945,2.457-0.56,3.9,1.445,5.541
			c3.95,3.238,7.726,6.684,12.054,9.436l0.352,0.288l0.451-0.066l0.009-0.227c-0.096,0.814,0.378,1.061,1.077,1.074l-0.069-0.068
			c-0.003,0.722,0.448,0.997,1.078,1.09l-0.075-0.087c0.086,0.634,0.516,0.928,1.074,1.095l-0.105-0.001
			C225.575,257.69,225.707,258.123,225.84,258.556z"/>
		<path fill="#8DC3FD" d="M209.778,149.054c5.447-5.189,9.685-11.41,14.5-17.137c2.124-2.528,3.774-3.46,7.111-1.977
			c18.486,8.209,33.152,20.092,39.665,40.074c2.042,6.262,2.832,12.722,2.53,19.307c-3.377-0.001-5.681,1.576-6.941,4.698
			c-10.376-1.623-20.606-4.027-31.14-4.82c-23.6-1.776-46.581-0.716-67.329,12.577c-0.223-0.239-0.455-0.468-0.702-0.684
			c13.215-16.142,26.433-32.283,39.638-48.437C208.057,151.501,208.892,150.256,209.778,149.054z"/>
		<path fill="#01F0FC" d="M336.185,243.281c-5.337,5.079-9.555,11.115-14.205,16.772c-1.891,2.297-3.448,2.717-6.309,1.776
			c-10.896-3.596-19.643-10.256-27.512-18.32c-11.072-11.347-15.657-25.144-15.403-40.77c2.458-0.829,4.989-1.542,6.26-4.157
			c2.686-1.207,5.241,0.087,7.747,0.61c9.803,2.047,19.653,3.678,29.652,4.309c3.347,0.095,6.69,0.21,10.035,0.281
			c18.832,0.405,36.577-3.191,52.338-14.146c0.388,2.217-1.452,3.278-2.554,4.625c-12.094,14.775-24.259,29.499-36.391,44.249
			C338.569,240.058,337.402,241.692,336.185,243.281z"/>
		<path fill="#00E64B" d="M221.653,254.161c-4.328-2.751-8.104-6.197-12.054-9.436c-2.005-1.641-2.39-3.084-1.445-5.541
			c4.758-12.342,11.584-23.198,21.876-31.698c0.634-0.523,1.194-1.139,1.789-1.714c10.456-7.11,21.82-11.073,34.635-10.05
			c0.412,2.971,1.813,5.213,4.702,6.352c-0.272,6.386-2.969,12.286-3.695,18.586c-2.42,20.988-3.718,41.904,3.442,62.379
			c1.836,5.244,4.285,10.16,7.253,14.833c0.898,1.406,2.084,2.643,1.945,4.48c-5.283-3.132-9.515-7.594-14.322-11.326
			c0.139-0.721-0.099-1.307-0.647-1.773c-4.652-3.971-7.659-9.066-10.861-14.236c-6.516-10.502-15.35-18.139-28.832-17.759
			l0.105,0.001c-0.357-0.363-0.716-0.73-1.074-1.095l0.075,0.087c-0.36-0.36-0.721-0.727-1.078-1.09l0.069,0.068
			c-0.357-0.356-0.716-0.715-1.077-1.074l-0.009,0.227C222.287,253.941,222.1,253.58,221.653,254.161z"/>
		<path fill="#0072A0" d="M378.787,189.636c-15.76,10.955-33.508,14.552-52.338,14.146c-3.344-0.072-6.687-0.186-10.035-0.281
			c0.431-0.743,0.996-1.51,1.851-1.556c4.432-0.232,8.735-1.347,13.054-1.969c9.843-1.412,19.365-3.678,28.237-7.958
			c7.487-3.609,13.522-9.11,16.56-17.258c2.167-5.808-0.864-10.277-7.086-10.342c-2.176-0.021-4.35-0.066-6.523-0.099
			c0.781-1.855,2.655-2.461,4.12-3.498c8.038-5.695,15.772-11.741,22.866-18.604c2.194-2.121,3.152-4.278,3.133-7.426
			c-0.145-22.613-0.072-45.231-0.04-67.847c0.006-3.346,0.171-6.69,0.264-10.036c0.718,0.644,0.595,1.492,0.589,2.325
			c-0.053,26.181,0.111,52.359-0.253,78.533c-0.195,14.091-1.678,28.111-6.448,41.545
			C385.217,183.588,383.509,187.794,378.787,189.636z"/>
		<path fill="#009E01" d="M225.442,257.259c13.483-0.38,22.316,7.258,28.832,17.759c3.201,5.17,6.209,10.265,10.861,14.236
			c0.547,0.465,0.786,1.052,0.647,1.773c-12.014-9.784-24.027-19.567-36.044-29.348c-1.293-1.049-2.597-2.081-3.897-3.121
			C225.707,258.123,225.575,257.69,225.442,257.259z"/>
		<path fill="#2E4F7C" d="M159.034,247.079c-4.309,3.2-5.164,7.5-5.107,12.716c0.278,24.949,0.18,49.897,0.217,74.849
			c-1.965-1.105-1.077-2.988-1.078-4.501c-0.062-25.117-0.222-50.237,0.031-75.348c0.117-11.872,1.584-23.672,4.318-35.261
			c1.501-6.355,3.489-12.503,8.781-16.908c0.625-0.004,1.248-0.009,1.873-0.016c1.397,1.548-0.35,2.117-1.038,2.69
			c-3.65,3.061-5.421,7.16-6.809,11.531c-2.801,8.847-2.823,18.109-4.085,27.191C155.84,246.159,156.933,247.134,159.034,247.079z"
			/>
		<path fill="#265734" d="M324.175,315.458c27.763,0.035,55.523,0.092,83.283,0.061c1.863-0.003,4.067,0.907,5.545-1.179
			c0.718,0.601,1.241,1.499,0.131,1.886c-1.216,0.42-2.629,0.341-3.956,0.341c-25.766,0.037-51.53,0.087-77.296,0.027
			C329.307,316.59,326.512,317.372,324.175,315.458z"/>
		<path fill="#8DC3FD" d="M168.069,202.609c-0.625,0.007-1.248,0.012-1.873,0.016c-0.066-0.92,0.746-1.112,1.279-1.533
			c0.247,0.216,0.479,0.445,0.702,0.684C168.16,202.053,168.123,202.336,168.069,202.609z"/>
		<path fill="#DA2B00" d="M279.591,196.341c-0.167-3.188-1.625-5.538-4.534-6.938c3.2-13.004,5.163-26.219,5.826-39.563
			c0.762-15.292-1.499-30.245-6.906-44.894c2.655-0.74,4.215,0.638,5.714,2.173c11.804,12.115,24.924,22.653,38.505,32.689
			c6.943,5.129,11.116,11.927,10.287,21.093c-0.192,2.129-1.01,4.904,2.282,5.847c-3.718,7.42-9.49,13.109-15.598,18.513
			C304.539,192.893,292.684,196.597,279.591,196.341z"/>
		<path fill="#DA2B00" d="M253.42,134.799c-2.717,0.558-4.455-0.776-5.98-1.863c-8.036-5.718-16.942-6.466-26.139-4.476
			c-10.338,2.237-18.845-0.272-26.742-7.38c-6.113-5.506-11.8-11.401-17.796-17c-2.247-2.098-3.706-4.665-5.269-7.265
			c-2.816-4.69-0.671-7.476,3.74-9.438c1.947-0.867,4.189-1.483,6.302-1.493c10.044-0.041,20.013-1.727,30.081-1.136
			c3.44,0.199,6.806,1.752,10.382,0.386c1.071-0.411,2.123,0.817,2.861,1.749c11.287,14.236,20.869,29.521,28.234,46.159
			C253.287,133.473,253.276,133.995,253.42,134.799z"/>
		<path fill="#DA2B00" d="M332.556,163.431c-0.154,1.369-0.812,2.458-1.864,3.328C330.213,165.034,330.928,163.977,332.556,163.431z
			"/>
		<path fill="#DA2B00" d="M333.746,161.374c-0.236,0.832-0.337,1.742-1.269,2.166C332.432,162.544,332.669,161.712,333.746,161.374z
			"/>
		<path fill="#008ABF" d="M279.591,196.341c13.091,0.256,24.947-3.448,35.576-11.081c4.349,0.423,7.786-2.265,11.669-3.43
			c4.59-1.377,8.519-4.42,13.291-5.34c0.433-0.287,0.863-0.575,1.3-0.86c0.232-0.155,0.485-0.211,0.759-0.167
			c0.932,0.007,1.835-0.058,2.321-1.041l-0.068,0.04c0.87,0.006,1.657-0.16,2.08-1.044l-0.058,0.034
			c0.87,0.015,1.65-0.155,2.067-1.044l-0.046,0.031c0.872,0.028,1.643-0.154,2.062-1.033l-0.043,0.022
			c0.875,0.034,1.637-0.155,2.055-1.03l-0.041,0.041c0.352-0.35,0.7-0.703,1.053-1.058l-0.053,0.038
			c0.87,0.015,1.665-0.133,2.071-1.041l-0.047,0.025c0.877,0.04,1.646-0.134,2.056-1.028l-0.04,0.041
			c0.352-0.353,0.706-0.708,1.053-1.061l-0.059,0.038c0.877,0.024,1.671-0.114,2.071-1.034l-0.037,0.019
			c0.88,0.053,1.646-0.124,2.049-1.027l-0.127-0.034c2.173,0.033,4.347,0.078,6.523,0.099c6.222,0.065,9.255,4.534,7.086,10.342
			c-3.037,8.148-9.075,13.649-16.56,17.258c-8.872,4.28-18.396,6.546-28.237,7.958c-4.319,0.622-8.621,1.737-13.054,1.969
			c-0.855,0.044-1.42,0.812-1.851,1.556c-9.999-0.631-19.849-2.262-29.652-4.309c-2.505-0.523-5.059-1.817-7.747-0.61
			C278.774,197.727,279.216,197.044,279.591,196.341z"/>
		<path fill="#0072A0" d="M350.547,171.407c-0.42,0.877-1.191,1.061-2.062,1.033C348.852,171.456,349.638,171.314,350.547,171.407z"
			/>
		<path fill="#0072A0" d="M348.53,172.409c-0.417,0.888-1.197,1.059-2.067,1.044C346.86,172.521,347.635,172.348,348.53,172.409z"/>
		<path fill="#0072A0" d="M346.521,173.417c-0.423,0.885-1.208,1.049-2.08,1.044C344.865,173.581,345.636,173.391,346.521,173.417z"
			/>
		<path fill="#0072A0" d="M344.509,174.422c-0.486,0.985-1.389,1.049-2.321,1.041C342.777,174.7,343.576,174.413,344.509,174.422z"
			/>
		<path fill="#0072A0" d="M355.588,168.38c-0.405,0.908-1.201,1.056-2.071,1.041C353.974,168.608,354.701,168.34,355.588,168.38z"/>
		<path fill="#0072A0" d="M357.596,167.376c-0.411,0.894-1.179,1.068-2.056,1.028C355.933,167.473,356.674,167.244,357.596,167.376z
			"/>
		<path fill="#0072A0" d="M360.623,165.361c-0.4,0.92-1.194,1.058-2.071,1.034C359.019,165.606,359.72,165.282,360.623,165.361z"/>
		<path fill="#0072A0" d="M362.635,164.353c-0.403,0.903-1.17,1.08-2.049,1.027C360.958,164.414,361.672,164.141,362.635,164.353z"
			/>
		<path fill="#0072A0" d="M352.559,170.4c-0.418,0.875-1.18,1.065-2.055,1.03C350.841,170.394,351.612,170.221,352.559,170.4z"/>
		<path fill="#0072A0" d="M341.429,175.63c-0.437,0.285-0.867,0.573-1.3,0.86C340.562,176.204,340.992,175.917,341.429,175.63z"/>
		<path fill="#0072A0" d="M353.571,169.383c-0.353,0.355-0.702,0.708-1.053,1.058C352.494,169.719,352.981,169.497,353.571,169.383z
			"/>
		<path fill="#0072A0" d="M358.609,166.356c-0.347,0.355-0.702,0.708-1.053,1.061C357.565,166.724,358.026,166.48,358.609,166.356z"
			/>
		<path fill="#3468D5" d="M266.644,194.019c-0.062,0.569-0.127,1.137-0.189,1.703c-12.816-1.022-24.181,2.941-34.635,10.05
			c-2.307-0.227-4.147,1.13-6.19,1.808c-25.079,8.318-46.8,22.281-66.596,39.499c-2.102,0.055-3.194-0.92-2.897-3.056
			c1.262-9.082,1.284-18.344,4.085-27.191c1.386-4.371,3.158-8.469,6.808-11.531c0.688-0.575,2.436-1.142,1.038-2.69
			c0.055-0.275,0.092-0.555,0.106-0.833c20.748-13.293,43.729-14.353,67.329-12.577
			C246.038,189.992,256.268,192.395,266.644,194.019z"/>
		<path fill="#009E01" d="M221.653,254.161c0.446-0.581,0.635-0.219,0.801,0.222l-0.451,0.066L221.653,254.161z"/>
		<path fill="#009E01" d="M222.463,254.155c0.359,0.357,0.718,0.716,1.077,1.074C222.841,255.216,222.367,254.969,222.463,254.155z"
			/>
		<path fill="#009E01" d="M223.47,255.161c0.359,0.363,0.719,0.73,1.078,1.09C223.918,256.157,223.466,255.883,223.47,255.161z"/>
		<path fill="#009E01" d="M224.473,256.164c0.357,0.365,0.716,0.731,1.074,1.095C224.987,257.092,224.558,256.798,224.473,256.164z"
			/>
	</g>
	<g>
		<text transform="matrix(1 0 0 1 413.0053 274.134)" font-family="'ArialMT'" font-size="142.0646">Airflow</text>
	</g>
</g>
</svg>
