<?xml version="1.0" encoding="utf-8"?>
<!-- Generator: Adobe Illustrator 17.0.0, SVG Export Plug-In . SVG Version: 6.00 Build 0)  -->
<!DOCTYPE svg PUBLIC "-//W3C//DTD SVG 1.1//EN" "http://www.w3.org/Graphics/SVG/1.1/DTD/svg11.dtd">
<svg version="1.1" id="Product_Icon" xmlns="http://www.w3.org/2000/svg" xmlns:xlink="http://www.w3.org/1999/xlink" x="0px"
	 y="0px" width="175px" height="75px" viewBox="0 0 175 75" enable-background="new 0 0 175 75" xml:space="preserve">
<title>Amazon-EC2</title>
<linearGradient id="Orange_Gradient_1_" gradientUnits="userSpaceOnUse" x1="-828.9031" y1="698.0416" x2="-828.9031" y2="548.0416" gradientTransform="matrix(-0.7071 -0.7071 -0.7071 0.7071 -83.0646 -964.1814)">
	<stop  offset="0" style="stop-color:#C8511B"/>
	<stop  offset="1" style="stop-color:#FF9900"/>
</linearGradient>
<rect id="Orange_Gradient" fill="url(#Orange_Gradient_1_)" width="175" height="75"/>
<g id="Icon_Test">
	<path fill="#FFFFFF" d="M110.5,40.5h-5v-2h5v-24h-24v5h-2v-5c0-1.105,0.895-2,2-2h24c1.105,0,2,0.895,2,2v24
		C112.5,39.605,111.605,40.5,110.5,40.5z"/>
	<path fill="#FFFFFF" d="M88.5,62.5h-24c-1.105,0-2-0.895-2-2v-24c0-1.105,0.895-2,2-2h5v2h-5v24h24v-5h2v5
		C90.5,61.605,89.605,62.5,88.5,62.5z"/>
	<path fill="#FFFFFF" d="M103.51,28.5v-2h-3c-0.085-1.067-0.933-1.915-2-2v-3h-2v3h-3v-3h-2v3h-3v-3h-2v3h-3v-3h-2v3h-3v-3h-2v3
		c-1.067,0.085-1.915,0.933-2,2h-3v2h3v3h-3v2h3v3h-3v2h3v3h-3v2h3v3h-3v2h3c0.085,1.067,0.933,1.915,2,2v3h2v-3h3v3h2v-3h3v3h2v-3
		h3v3h2v-3h3v3h2v-3c1.067-0.085,1.915-0.933,2-2h3v-2h-3v-3h3v-2h-3v-3h3v-2h-3v-3h3v-2h-3v-3H103.51z M98.51,48.32
		c0,0.099-0.081,0.18-0.18,0.18l0,0H76.69c-0.099,0-0.18-0.081-0.18-0.18l0,0V26.68c0-0.099,0.081-0.18,0.18-0.18l0,0h21.64
		c0.099,0,0.18,0.081,0.18,0.18l0,0V48.32z"/>
</g>
</svg>
