<?xml version="1.0" encoding="utf-8"?>
<!-- Generator: Adobe Illustrator 17.0.0, SVG Export Plug-In . SVG Version: 6.00 Build 0)  -->
<!DOCTYPE svg PUBLIC "-//W3C//DTD SVG 1.1//EN" "http://www.w3.org/Graphics/SVG/1.1/DTD/svg11.dtd">
<svg version="1.1" id="Product_Icon" xmlns="http://www.w3.org/2000/svg" xmlns:xlink="http://www.w3.org/1999/xlink" x="0px"
	 y="0px" width="175px" height="75px" viewBox="0 0 175 75" enable-background="new 0 0 175 75" xml:space="preserve">
<title>AWS-Lambda</title>
<linearGradient id="Orange_Gradient_1_" gradientUnits="userSpaceOnUse" x1="-828.9031" y1="698.0416" x2="-828.9031" y2="548.0416" gradientTransform="matrix(-0.7071 -0.7071 -0.7071 0.7071 -83.0646 -964.1814)">
	<stop  offset="0" style="stop-color:#C8511B"/>
	<stop  offset="1" style="stop-color:#FF9900"/>
</linearGradient>
<rect id="Orange_Gradient" fill="url(#Orange_Gradient_1_)" width="175" height="75"/>
<g id="Icon_Test">
	<path fill="#FFFFFF" d="M110.515,62.5h-12.32c-0.385-0.001-0.735-0.223-0.9-0.57L79.875,25.5h-7.37c-0.552,0-1-0.448-1-1v-11
		c0-0.552,0.448-1,1-1h15.4c0.385,0.001,0.735,0.223,0.9,0.57l17.34,36.43h4.37c0.552,0,1,0.448,1,1v11
		C111.515,62.052,111.067,62.5,110.515,62.5z M98.825,60.5h10.69v-9h-4c-0.385-0.001-0.735-0.223-0.9-0.57L87.275,14.5h-13.76v9h7
		c0.385,0.001,0.735,0.223,0.9,0.57L98.825,60.5z"/>
	<path fill="#FFFFFF" d="M77.495,62.5h-13c-0.346,0.001-0.667-0.177-0.85-0.47c-0.194-0.3-0.213-0.682-0.05-1l13.6-28.41
		c0.165-0.347,0.515-0.569,0.9-0.57l0,0c0.382-0.001,0.732,0.217,0.9,0.56L85.505,46c0.133,0.275,0.133,0.595,0,0.87l-7.1,15
		C78.256,62.244,77.898,62.492,77.495,62.5z M66.095,60.5h10.77l6.63-14l-5.39-11.15L66.095,60.5z"/>
</g>
</svg>
