<?xml version="1.0" encoding="utf-8"?>

<!-- Examples of material colors  -->
<svg version="1.1" xmlns="http://www.w3.org/2000/svg" xmlns:xlink="http://www.w3.org/1999/xlink" x="0px" y="0px" width="500px"
	 height="500px" viewBox="0 0 500 500" enable-background="new 0 0 500 500" xml:space="preserve">


<!-- Grid of colors  -->
<g id="material-design-color-chart">

	<!-- red  -->
	<g>
		<rect x="0" y="0" fill="#FFEBEE" width="48" height="48"/>
		<rect x="50" y="0" fill="#FFCDD2" width="48" height="48"/>
		<rect x="100" y="0" fill="#EF9A9A" width="48" height="48"/>
		<rect x="150" y="0" fill="#E57373" width="48" height="48"/>
		<rect x="200" y="0" fill="#EF5350" width="48" height="48"/>
		<rect x="250" y="0" fill="#F44336" width="48" height="48"/>
		<rect x="300" y="0" fill="#E53935" width="48" height="48"/>
		<rect x="350" y="0" fill="#D32F2F" width="48" height="48"/>
		<rect x="400" y="0" fill="#C62828" width="48" height="48"/>
		<rect x="450" y="0" fill="#B71C1C" width="48" height="48"/>
	</g>

	<!-- purple  -->
	<g>
		<rect x="0" y="50" fill="#F3E5F5" width="48" height="48"/>
		<rect x="50" y="50" fill="#E1BEE7" width="48" height="48"/>
		<rect x="100" y="50" fill="#CE93D8" width="48" height="48"/>
		<rect x="150" y="50" fill="#BA68C8" width="48" height="48"/>
		<rect x="200" y="50" fill="#AB47BC" width="48" height="48"/>
		<rect x="250" y="50" fill="#9C27B0" width="48" height="48"/>
		<rect x="300" y="50" fill="#8E24AA" width="48" height="48"/>
		<rect x="350" y="50" fill="#7B1FA2" width="48" height="48"/>
		<rect x="400" y="50" fill="#6A1B9A" width="48" height="48"/>
		<rect x="450" y="50" fill="#4A148C" width="48" height="48"/>
	</g>

	<!-- indigo  -->
	<g>
		<rect x="0" y="100" fill="#E8EAF6" width="48" height="48"/>
		<rect x="50" y="100" fill="#C5CAE9" width="48" height="48"/>
		<rect x="100" y="100" fill="#9FA8DA" width="48" height="48"/>
		<rect x="150" y="100" fill="#7986CB" width="48" height="48"/>
		<rect x="200" y="100" fill="#5C6BC0" width="48" height="48"/>
		<rect x="250" y="100" fill="#3F51B5" width="48" height="48"/>
		<rect x="300" y="100" fill="#3949AB" width="48" height="48"/>
		<rect x="350" y="100" fill="#303F9F" width="48" height="48"/>
		<rect x="400" y="100" fill="#283593" width="48" height="48"/>
		<rect x="450" y="100" fill="#1A237E" width="48" height="48"/>
	</g>

	<!-- light blue  -->
	<g>
		<rect x="0" y="150" fill="#E1F5FE" width="48" height="48"/>
		<rect x="50" y="150" fill="#B3E5FC" width="48" height="48"/>
		<rect x="100" y="150" fill="#81D4FA" width="48" height="48"/>
		<rect x="150" y="150" fill="#4FC3F7" width="48" height="48"/>
		<rect x="200" y="150" fill="#29B6F6" width="48" height="48"/>
		<rect x="250" y="150" fill="#03A9F4" width="48" height="48"/>
		<rect x="300" y="150" fill="#039BE5" width="48" height="48"/>
		<rect x="350" y="150" fill="#0288D1" width="48" height="48"/>
		<rect x="400" y="150" fill="#0277BD" width="48" height="48"/>
		<rect x="450" y="150" fill="#01579B" width="48" height="48"/>
	</g>

	<!-- teal  -->
	<g>
		<rect x="0" y="200" fill="#E0F2F1" width="48" height="48"/>
		<rect x="50" y="200" fill="#B2DFDB" width="48" height="48"/>
		<rect x="100" y="200" fill="#80CBC4" width="48" height="48"/>
		<rect x="150" y="200" fill="#4DB6AC" width="48" height="48"/>
		<rect x="200" y="200" fill="#26A69A" width="48" height="48"/>
		<rect x="250" y="200" fill="#009688" width="48" height="48"/>
		<rect x="300" y="200" fill="#00897B" width="48" height="48"/>
		<rect x="350" y="200" fill="#00796B" width="48" height="48"/>
		<rect x="400" y="200" fill="#00695C" width="48" height="48"/>
		<rect x="450" y="200" fill="#004D40" width="48" height="48"/>
	</g>

	<!-- light green  -->
	<g>
		<rect x="0" y="250" fill="#F1F8E9" width="48" height="48"/>
		<rect x="50" y="250" fill="#DCEDC8" width="48" height="48"/>
		<rect x="100" y="250" fill="#C5E1A5" width="48" height="48"/>
		<rect x="150" y="250" fill="#AED581" width="48" height="48"/>
		<rect x="200" y="250" fill="#9CCC65" width="48" height="48"/>
		<rect x="250" y="250" fill="#8BC34A" width="48" height="48"/>
		<rect x="300" y="250" fill="#7CB342" width="48" height="48"/>
		<rect x="350" y="250" fill="#689F38" width="48" height="48"/>
		<rect x="400" y="250" fill="#558B2F" width="48" height="48"/>
		<rect x="450" y="250" fill="#33691E" width="48" height="48"/>
	</g>

	<!-- yellow  -->
	<g>
		<rect x="0" y="300" fill="#FFFDE7" width="48" height="48"/>
		<rect x="50" y="300" fill="#FFF9C4" width="48" height="48"/>
		<rect x="100" y="300" fill="#FFF59D" width="48" height="48"/>
		<rect x="150" y="300" fill="#FFF176" width="48" height="48"/>
		<rect x="200" y="300" fill="#FFEE58" width="48" height="48"/>
		<rect x="250" y="300" fill="#FFEB3B" width="48" height="48"/>
		<rect x="300" y="300" fill="#FDD835" width="48" height="48"/>
		<rect x="350" y="300" fill="#FBC02D" width="48" height="48"/>
		<rect x="400" y="300" fill="#F9A825" width="48" height="48"/>
		<rect x="450" y="300" fill="#F57F17" width="48" height="48"/>
	</g>

	<!-- orange  -->
	<g>
		<rect x="0" y="350" fill="#FFF3E0" width="48" height="48"/>
		<rect x="50" y="350" fill="#FFE0B2" width="48" height="48"/>
		<rect x="100" y="350" fill="#FFCC80" width="48" height="48"/>
		<rect x="150" y="350" fill="#FFB74D" width="48" height="48"/>
		<rect x="200" y="350" fill="#FFA726" width="48" height="48"/>
		<rect x="250" y="350" fill="#FF9800" width="48" height="48"/>
		<rect x="300" y="350" fill="#FB8C00" width="48" height="48"/>
		<rect x="350" y="350" fill="#F57C00" width="48" height="48"/>
		<rect x="400" y="350" fill="#EF6C00" width="48" height="48"/>
		<rect x="450" y="350" fill="#E65100" width="48" height="48"/>
	</g>

	<!-- brown  -->
	<g>
		<rect x="0" y="400" fill="#EFEBE9" width="48" height="48"/>
		<rect x="50" y="400" fill="#D7CCC8" width="48" height="48"/>
		<rect x="100" y="400" fill="#BCAAA4" width="48" height="48"/>
		<rect x="150" y="400" fill="#A1887F" width="48" height="48"/>
		<rect x="200" y="400" fill="#8D6E63" width="48" height="48"/>
		<rect x="250" y="400" fill="#795548" width="48" height="48"/>
		<rect x="300" y="400" fill="#6D4C41" width="48" height="48"/>
		<rect x="350" y="400" fill="#5D4037" width="48" height="48"/>
		<rect x="400" y="400" fill="#4E342E" width="48" height="48"/>
		<rect x="450" y="400" fill="#3E2723" width="48" height="48"/>
	</g>

	<!-- grey  -->
	<g>
		<rect x="0" y="450" fill="#FAFAFA" width="48" height="48"/>
		<rect x="50" y="450" fill="#F5F5F5" width="48" height="48"/>
		<rect x="100" y="450" fill="#EEEEEE" width="48" height="48"/>
		<rect x="150" y="450" fill="#E0E0E0" width="48" height="48"/>
		<rect x="200" y="450" fill="#BDBDBD" width="48" height="48"/>
		<rect x="250" y="450" fill="#9E9E9E" width="48" height="48"/>
		<rect x="300" y="450" fill="#757575" width="48" height="48"/>
		<rect x="350" y="450" fill="#616161" width="48" height="48"/>
		<rect x="400" y="450" fill="#424242" width="48" height="48"/>
		<rect x="450" y="450" fill="#212121" width="48" height="48"/>
	</g>
</g>
</svg>
