<?xml version="1.0" encoding="utf-8"?>

<svg version="1.1" xmlns="http://www.w3.org/2000/svg" xmlns:xlink="http://www.w3.org/1999/xlink" x="0px" y="0px" width="1000px"
	 height="550px" viewBox="0 0 1000 550" enable-background="new 0 0 1000 550" xml:space="preserve">
<g id="material-design-color-chart">
	<g>
		<rect x="50" y="50" fill="#FFEBEE" width="48" height="48"/>
		<rect x="50" y="100" fill="#FFCDD2" width="48" height="48"/>
		<rect x="50" y="150" fill="#EF9A9A" width="48" height="48"/>
		<rect x="50" y="200" fill="#E57373" width="48" height="48"/>
		<rect x="50" y="250" fill="#EF5350" width="48" height="48"/>
		<rect x="50" y="300" fill="#F44336" width="48" height="48"/>
		<rect x="50" y="350" fill="#E53935" width="48" height="48"/>
		<rect x="50" y="400" fill="#D32F2F" width="48" height="48"/>
		<rect x="50" y="450" fill="#C62828" width="48" height="48"/>
		<rect x="50" y="500" fill="#B71C1C" width="48" height="48"/>

		<rect x="100" y="50" fill="#FCE4EC" width="48" height="48"/>
		<rect x="100" y="100" fill="#F8BBD0" width="48" height="48"/>
		<rect x="100" y="150" fill="#F48FB1" width="48" height="48"/>
		<rect x="100" y="200" fill="#F06292" width="48" height="48"/>
		<rect x="100" y="250" fill="#EC407A" width="48" height="48"/>
		<rect x="100" y="300" fill="#E91E63" width="48" height="48"/>
		<rect x="100" y="350" fill="#D81B60" width="48" height="48"/>
		<rect x="100" y="400" fill="#C2185B" width="48" height="48"/>
		<rect x="100" y="450" fill="#AD1457" width="48" height="48"/>
		<rect x="100" y="500" fill="#880E4F" width="48" height="48"/>

		<rect x="150" y="50" fill="#F3E5F5" width="48" height="48"/>
		<rect x="150" y="100" fill="#E1BEE7" width="48" height="48"/>
		<rect x="150" y="150" fill="#CE93D8" width="48" height="48"/>
		<rect x="150" y="200" fill="#BA68C8" width="48" height="48"/>
		<rect x="150" y="250" fill="#AB47BC" width="48" height="48"/>
		<rect x="150" y="300" fill="#9C27B0" width="48" height="48"/>
		<rect x="150" y="350" fill="#8E24AA" width="48" height="48"/>
		<rect x="150" y="400" fill="#7B1FA2" width="48" height="48"/>
		<rect x="150" y="450" fill="#6A1B9A" width="48" height="48"/>
		<rect x="150" y="500" fill="#4A148C" width="48" height="48"/>

		<rect x="200" y="50" fill="#EDE7F6" width="48" height="48"/>
		<rect x="200" y="100" fill="#D1C4E9" width="48" height="48"/>
		<rect x="200" y="150" fill="#B39DDB" width="48" height="48"/>
		<rect x="200" y="200" fill="#9575CD" width="48" height="48"/>
		<rect x="200" y="250" fill="#7E57C2" width="48" height="48"/>
		<rect x="200" y="300" fill="#673AB7" width="48" height="48"/>
		<rect x="200" y="350" fill="#5E35B1" width="48" height="48"/>
		<rect x="200" y="400" fill="#512DA8" width="48" height="48"/>
		<rect x="200" y="450" fill="#4527A0" width="48" height="48"/>
		<rect x="200" y="500" fill="#311B92" width="48" height="48"/>

		<rect x="250" y="50" fill="#E8EAF6" width="48" height="48"/>
		<rect x="250" y="100" fill="#C5CAE9" width="48" height="48"/>
		<rect x="250" y="150" fill="#9FA8DA" width="48" height="48"/>
		<rect x="250" y="200" fill="#7986CB" width="48" height="48"/>
		<rect x="250" y="250" fill="#5C6BC0" width="48" height="48"/>
		<rect x="250" y="300" fill="#3F51B5" width="48" height="48"/>
		<rect x="250" y="350" fill="#3949AB" width="48" height="48"/>
		<rect x="250" y="400" fill="#303F9F" width="48" height="48"/>
		<rect x="250" y="450" fill="#283593" width="48" height="48"/>
		<rect x="250" y="500" fill="#1A237E" width="48" height="48"/>

		<rect x="300" y="50" fill="#E3F2FD" width="48" height="48"/>
		<rect x="300" y="100" fill="#BBDEFB" width="48" height="48"/>
		<rect x="300" y="150" fill="#90CAF9" width="48" height="48"/>
		<rect x="300" y="200" fill="#64B5F6" width="48" height="48"/>
		<rect x="300" y="250" fill="#42A5F5" width="48" height="48"/>
		<rect x="300" y="300" fill="#2196F3" width="48" height="48"/>
		<rect x="300" y="350" fill="#1E88E5" width="48" height="48"/>
		<rect x="300" y="400" fill="#1976D2" width="48" height="48"/>
		<rect x="300" y="450" fill="#1565C0" width="48" height="48"/>
		<rect x="300" y="500" fill="#0D47A1" width="48" height="48"/>

		<rect x="350" y="50" fill="#E1F5FE" width="48" height="48"/>
		<rect x="350" y="100" fill="#B3E5FC" width="48" height="48"/>
		<rect x="350" y="150" fill="#81D4FA" width="48" height="48"/>
		<rect x="350" y="200" fill="#4FC3F7" width="48" height="48"/>
		<rect x="350" y="250" fill="#29B6F6" width="48" height="48"/>
		<rect x="350" y="300" fill="#03A9F4" width="48" height="48"/>
		<rect x="350" y="350" fill="#039BE5" width="48" height="48"/>
		<rect x="350" y="400" fill="#0288D1" width="48" height="48"/>
		<rect x="350" y="450" fill="#0277BD" width="48" height="48"/>
		<rect x="350" y="500" fill="#01579B" width="48" height="48"/>

		<rect x="400" y="50" fill="#E0F7FA" width="48" height="48"/>
		<rect x="400" y="100" fill="#B2EBF2" width="48" height="48"/>
		<rect x="400" y="150" fill="#80DEEA" width="48" height="48"/>
		<rect x="400" y="200" fill="#4DD0E1" width="48" height="48"/>
		<rect x="400" y="250" fill="#26C6DA" width="48" height="48"/>
		<rect x="400" y="300" fill="#00BCD4" width="48" height="48"/>
		<rect x="400" y="350" fill="#00ACC1" width="48" height="48"/>
		<rect x="400" y="400" fill="#0097A7" width="48" height="48"/>
		<rect x="400" y="450" fill="#00838F" width="48" height="48"/>
		<rect x="400" y="500" fill="#006064" width="48" height="48"/>

		<rect x="450" y="50" fill="#E0F2F1" width="48" height="48"/>
		<rect x="450" y="100" fill="#B2DFDB" width="48" height="48"/>
		<rect x="450" y="150" fill="#80CBC4" width="48" height="48"/>
		<rect x="450" y="200" fill="#4DB6AC" width="48" height="48"/>
		<rect x="450" y="250" fill="#26A69A" width="48" height="48"/>
		<rect x="450" y="300" fill="#009688" width="48" height="48"/>
		<rect x="450" y="350" fill="#00897B" width="48" height="48"/>
		<rect x="450" y="400" fill="#00796B" width="48" height="48"/>
		<rect x="450" y="450" fill="#00695C" width="48" height="48"/>
		<rect x="450" y="500" fill="#004D40" width="48" height="48"/>

		<rect x="500" y="50" fill="#E8F5E9" width="48" height="48"/>
		<rect x="500" y="100" fill="#C8E6C9" width="48" height="48"/>
		<rect x="500" y="150" fill="#A5D6A7" width="48" height="48"/>
		<rect x="500" y="200" fill="#81C784" width="48" height="48"/>
		<rect x="500" y="250" fill="#66BB6A" width="48" height="48"/>
		<rect x="500" y="300" fill="#4CAF50" width="48" height="48"/>
		<rect x="500" y="350" fill="#43A047" width="48" height="48"/>
		<rect x="500" y="400" fill="#388E3C" width="48" height="48"/>
		<rect x="500" y="450" fill="#2E7D32" width="48" height="48"/>
		<rect x="500" y="500" fill="#1B5E20" width="48" height="48"/>

		<rect x="550" y="50" fill="#F1F8E9" width="48" height="48"/>
		<rect x="550" y="100" fill="#DCEDC8" width="48" height="48"/>
		<rect x="550" y="150" fill="#C5E1A5" width="48" height="48"/>
		<rect x="550" y="200" fill="#AED581" width="48" height="48"/>
		<rect x="550" y="250" fill="#9CCC65" width="48" height="48"/>
		<rect x="550" y="300" fill="#8BC34A" width="48" height="48"/>
		<rect x="550" y="350" fill="#7CB342" width="48" height="48"/>
		<rect x="550" y="400" fill="#689F38" width="48" height="48"/>
		<rect x="550" y="450" fill="#558B2F" width="48" height="48"/>
		<rect x="550" y="500" fill="#33691E" width="48" height="48"/>

		<rect x="600" y="50" fill="#F9FBE7" width="48" height="48"/>
		<rect x="600" y="100" fill="#F0F4C3" width="48" height="48"/>
		<rect x="600" y="150" fill="#E6EE9C" width="48" height="48"/>
		<rect x="600" y="200" fill="#DCE775" width="48" height="48"/>
		<rect x="600" y="250" fill="#D4E157" width="48" height="48"/>
		<rect x="600" y="300" fill="#CDDC39" width="48" height="48"/>
		<rect x="600" y="350" fill="#C0CA33" width="48" height="48"/>
		<rect x="600" y="400" fill="#AFB42B" width="48" height="48"/>
		<rect x="600" y="450" fill="#9E9D24" width="48" height="48"/>
		<rect x="600" y="500" fill="#827717" width="48" height="48"/>

		<rect x="650" y="50" fill="#FFFDE7" width="48" height="48"/>
		<rect x="650" y="100" fill="#FFF9C4" width="48" height="48"/>
		<rect x="650" y="150" fill="#FFF59D" width="48" height="48"/>
		<rect x="650" y="200" fill="#FFF176" width="48" height="48"/>
		<rect x="650" y="250" fill="#FFEE58" width="48" height="48"/>
		<rect x="650" y="300" fill="#FFEB3B" width="48" height="48"/>
		<rect x="650" y="350" fill="#FDD835" width="48" height="48"/>
		<rect x="650" y="400" fill="#FBC02D" width="48" height="48"/>
		<rect x="650" y="450" fill="#F9A825" width="48" height="48"/>
		<rect x="650" y="500" fill="#F57F17" width="48" height="48"/>

		<rect x="700" y="50" fill="#FFF8E1" width="48" height="48"/>
		<rect x="700" y="100" fill="#FFECB3" width="48" height="48"/>
		<rect x="700" y="150" fill="#FFE082" width="48" height="48"/>
		<rect x="700" y="200" fill="#FFD54F" width="48" height="48"/>
		<rect x="700" y="250" fill="#FFCA28" width="48" height="48"/>
		<rect x="700" y="300" fill="#FFC107" width="48" height="48"/>
		<rect x="700" y="350" fill="#FFB300" width="48" height="48"/>
		<rect x="700" y="400" fill="#FFA000" width="48" height="48"/>
		<rect x="700" y="450" fill="#FF8F00" width="48" height="48"/>
		<rect x="700" y="500" fill="#FF6F00" width="48" height="48"/>

		<rect x="750" y="50" fill="#FFF3E0" width="48" height="48"/>
		<rect x="750" y="100" fill="#FFE0B2" width="48" height="48"/>
		<rect x="750" y="150" fill="#FFCC80" width="48" height="48"/>
		<rect x="750" y="200" fill="#FFB74D" width="48" height="48"/>
		<rect x="750" y="250" fill="#FFA726" width="48" height="48"/>
		<rect x="750" y="300" fill="#FF9800" width="48" height="48"/>
		<rect x="750" y="350" fill="#FB8C00" width="48" height="48"/>
		<rect x="750" y="400" fill="#F57C00" width="48" height="48"/>
		<rect x="750" y="450" fill="#EF6C00" width="48" height="48"/>
		<rect x="750" y="500" fill="#E65100" width="48" height="48"/>

		<rect x="800" y="50" fill="#FBE9E7" width="48" height="48"/>
		<rect x="800" y="100" fill="#FFCCBC" width="48" height="48"/>
		<rect x="800" y="150" fill="#FFAB91" width="48" height="48"/>
		<rect x="800" y="200" fill="#FF8A65" width="48" height="48"/>
		<rect x="800" y="250" fill="#FF7043" width="48" height="48"/>
		<rect x="800" y="300" fill="#FF5722" width="48" height="48"/>
		<rect x="800" y="350" fill="#F4511E" width="48" height="48"/>
		<rect x="800" y="400" fill="#E64A19" width="48" height="48"/>
		<rect x="800" y="450" fill="#D84315" width="48" height="48"/>
		<rect x="800" y="500" fill="#BF360C" width="48" height="48"/>

		<rect x="850" y="50" fill="#EFEBE9" width="48" height="48"/>
		<rect x="850" y="100" fill="#D7CCC8" width="48" height="48"/>
		<rect x="850" y="150" fill="#BCAAA4" width="48" height="48"/>
		<rect x="850" y="200" fill="#A1887F" width="48" height="48"/>
		<rect x="850" y="250" fill="#8D6E63" width="48" height="48"/>
		<rect x="850" y="300" fill="#795548" width="48" height="48"/>
		<rect x="850" y="350" fill="#6D4C41" width="48" height="48"/>
		<rect x="850" y="400" fill="#5D4037" width="48" height="48"/>
		<rect x="850" y="450" fill="#4E342E" width="48" height="48"/>
		<rect x="850" y="500" fill="#3E2723" width="48" height="48"/>

		<rect x="900" y="50" fill="#FAFAFA" width="48" height="48"/>
		<rect x="900" y="100" fill="#F5F5F5" width="48" height="48"/>
		<rect x="900" y="150" fill="#EEEEEE" width="48" height="48"/>
		<rect x="900" y="200" fill="#E0E0E0" width="48" height="48"/>
		<rect x="900" y="250" fill="#BDBDBD" width="48" height="48"/>
		<rect x="900" y="300" fill="#9E9E9E" width="48" height="48"/>
		<rect x="900" y="350" fill="#757575" width="48" height="48"/>
		<rect x="900" y="400" fill="#616161" width="48" height="48"/>
		<rect x="900" y="450" fill="#424242" width="48" height="48"/>
		<rect x="900" y="500" fill="#212121" width="48" height="48"/>

		<rect x="950" y="50" fill="#ECEFF1" width="48" height="48"/>
		<rect x="950" y="100" fill="#CFD8DC" width="48" height="48"/>
		<rect x="950" y="150" fill="#B0BEC5" width="48" height="48"/>
		<rect x="950" y="200" fill="#90A4AE" width="48" height="48"/>
		<rect x="950" y="250" fill="#78909C" width="48" height="48"/>
		<rect x="950" y="300" fill="#607D8B" width="48" height="48"/>
		<rect x="950" y="350" fill="#546E7A" width="48" height="48"/>
		<rect x="950" y="400" fill="#455A64" width="48" height="48"/>
		<rect x="950" y="450" fill="#37474F" width="48" height="48"/>
		<rect x="950" y="500" fill="#263238" width="48" height="48"/>
	</g>
</g>

<!-- Color indexs  -->
<g>
	<text transform="matrix(1 0 0 1 14 80)" font-size="14">50</text>
	<text transform="matrix(1 0 0 1 14 130)" font-size="14">100</text>
	<text transform="matrix(1 0 0 1 14 180)" font-size="14">200</text>
	<text transform="matrix(1 0 0 1 14 230)" font-size="14">300</text>
	<text transform="matrix(1 0 0 1 14 280)" font-size="14">400</text>
	<text transform="matrix(1 0 0 1 14 330)" font-size="14">500</text>
	<text transform="matrix(1 0 0 1 14 380)" font-size="14">600</text>
	<text transform="matrix(1 0 0 1 14 430)" font-size="14">700</text>
	<text transform="matrix(1 0 0 1 14 480)" font-size="14">800</text>
	<text transform="matrix(1 0 0 1 14 530)" font-size="14">900</text>
</g>

<!-- Color names  -->
<g>
	<text transform="matrix(1 0 0 1 56 28)" font-size="14">red</text>
	<text transform="matrix(1 0 0 1 106 28)" font-size="14">pink</text>
	<text transform="matrix(1 0 0 1 156 28)" font-size="14">purple</text>
	<text transform="matrix(1 0 0 1 206 20)" font-size="14">deep</text><text transform="matrix(1 0 0 1 206 40)" font-size="14">purple</text>
	<text transform="matrix(1 0 0 1 256 28)" font-size="14">indigo</text>
	<text transform="matrix(1 0 0 1 306 28)" font-size="14">blue</text>
	<text transform="matrix(1 0 0 1 356 20)" font-size="14">light</text><text transform="matrix(1 0 0 1 356 40)" font-size="14">blue</text>
	<text transform="matrix(1 0 0 1 406 28)" font-size="14">cyan</text>
	<text transform="matrix(1 0 0 1 456 28)" font-size="14">teal</text>
	<text transform="matrix(1 0 0 1 506 28)" font-size="14">green</text>
	<text transform="matrix(1 0 0 1 556 20)" font-size="14">light</text><text transform="matrix(1 0 0 1 556 40)" font-size="14">green</text>
	<text transform="matrix(1 0 0 1 606 28)" font-size="14">lime</text>
	<text transform="matrix(1 0 0 1 656 28)" font-size="14">yellow</text>
	<text transform="matrix(1 0 0 1 706 28)" font-size="14">amber</text>
	<text transform="matrix(1 0 0 1 756 28)" font-size="14">orange</text>
	<text transform="matrix(1 0 0 1 806 20)" font-size="14">deep</text><text transform="matrix(1 0 0 1 806 40)" font-size="14">orange</text>
	<text transform="matrix(1 0 0 1 856 28)" font-size="14">brown</text>
	<text transform="matrix(1 0 0 1 906 28)" font-size="14">grey</text>
	<text transform="matrix(1 0 0 1 956 20)" font-size="14">blue</text><text transform="matrix(1 0 0 1 956 40)" font-size="14">grey</text>
	<text transform="matrix(1 0 0 1 1006 28)" font-size="14">black</text>
	<text transform="matrix(1 0 0 1 1056 28)" font-size="14">white</text>
</g>

</svg>
